<?xml version="1.0" encoding="UTF-8" standalone="no"?>
<svg
   viewBox="-16.998544 -3.0674675 131.61258 147.8687"
   width="1724.3101"
   height="1759.861"
   version="1.1"
   id="svg12"
   sodipodi:docname="l.s_fin.svg"
   inkscape:version="1.2.1 (9c6d41e410, 2022-07-14, custom)"
   xml:space="preserve"
   xmlns:inkscape="http://www.inkscape.org/namespaces/inkscape"
   xmlns:sodipodi="http://sodipodi.sourceforge.net/DTD/sodipodi-0.dtd"
   xmlns="http://www.w3.org/2000/svg"
   xmlns:svg="http://www.w3.org/2000/svg"><defs
     id="defs16"><rect
       x="831.30969"
       y="1633.4214"
       width="414.30023"
       height="236.77226"
       id="rect394" /></defs><sodipodi:namedview
     id="namedview14"
     pagecolor="#ffffff"
     bordercolor="#000000"
     borderopacity="0.25"
     inkscape:showpageshadow="2"
     inkscape:pageopacity="0.0"
     inkscape:pagecheckerboard="0"
     inkscape:deskcolor="#d1d1d1"
     showgrid="false"
     inkscape:zoom="0.37811123"
     inkscape:cx="-323.97874"
     inkscape:cy="436.37953"
     inkscape:window-width="2560"
     inkscape:window-height="1393"
     inkscape:window-x="0"
     inkscape:window-y="24"
     inkscape:window-maximized="1"
     inkscape:current-layer="layer2" /><g
     inkscape:groupmode="layer"
     id="layer2"
     inkscape:label="vector"
     transform="translate(-2.3431046,6.7367691)"><path
       d="m 121.49231,27.647097 c -1.34,-0.81 -3.22,0.77 -4.08,2.4 0.46,-2.93 0.74,-7 -1.26,-7.38 -2,-0.38 -3.69,4.55 -3.82,6.33 0,0 -2.14,-6.21 -4.39,-5.48 -2.25,0.73 -1.68,4.15 -0.17,8.55 -5.36,-2.79 -9.300002,3.72 -8.880002,6.83 -3.433291,2.181208 -7.90945,3.211715 -9.495282,3.100136 -2.223289,-0.156432 -4.508765,-0.510899 -6.463734,-0.894269 2.085691,3.199827 5.816333,8.36736 11.721857,9.660909 2.576637,0.564388 5.258218,0.408315 7.887161,0.193224 -0.12295,0.370097 -0.16723,0.761796 -0.13,1.15 0.0888,0.785563 0.48413,1.504312 1.1,2 0.58136,0.413353 1.28852,0.611358 2,0.56 0.18642,-0.01697 0.36882,-0.06426 0.54,-0.14 0,0 0.18,-0.08 0.19,-0.12 -0.48336,2.48634 -1.11787,4.940895 -1.9,7.35 -0.59,0.14 -1,0.43 -13.230002,1.89 l -0.62,-2.44 c -3.418488,-14.570034 -5.172512,-16.648616 -5.99,-19.93 -0.506695,-1.607007 -1.138633,-3.171803 -1.89,-4.68 2.266654,-0.703324 4.49042,-1.538071 6.66,-2.5 3.75,-1.84 14.580002,-8.19 14.570002,-13.79 0,-2.52 -2.33,-3.49 -4.160002,-4 -6.3,-1.8 -21.21,-2 -32.71,2 -0.23,0.07 -0.45,0.16 -0.68,0.24 -1.346128,0.334352 -2.504401,0.878344 -3.547826,1.174954 -2.051799,0.790945 -3.694656,1.829519 -6.472174,3.855046 -2.899768,2.114678 -4.630224,3.408874 -7.811139,8.624365 -0.50005,0.819893 -1.081012,1.787413 -1.72863,3.417794 -0.135556,-0.138905 -0.403959,-0.479149 -0.865027,-0.58124 -0.227404,-0.05035 -0.981878,0.199958 -1.369386,0.843704 -0.69957,1.162159 0.274412,2.693486 1.35,3.52 h -0.13 c -1.333333,-0.04667 -1.403333,1.953333 -0.07,2 h 0.08 c 0.26415,-0.0055 0.526418,-0.04583 0.78,-0.12 -0.545588,5.343264 0.185776,17.05844 3.824182,26.315377 -2.025476,2.212911 -4.19701,4.287562 -6.5,6.21 -1,-1.35 -1.78,-2.41 -2.44,-3.41 -1.1091,-1.799812 -2.078606,-3.681992 -2.9,-5.63 0,-0.14 0.19,-1.46 0.33,-2.46 0.265653,-1.654229 0.416015,-3.324921 0.45,-5 0,-0.37 0.22,-6.12 -4,-6.11 -0.94397,0.03097 -1.862433,0.314109 -2.66,0.82 0.455632,-0.550864 1.073047,-0.829022 1.068035,-1.407729 -0.05033,-1.326962 -1.097207,-0.603036 -1.170151,-1.841171 C 31.867609,37.861102 31.300103,25.839251 30.774215,23.287483 30.552736,22.212798 30.131639,16.134634 29.763854,15.383769 29.510018,14.865542 35.958924,1.6035745 36.126981,0.64026264 36.736166,-2.8516172 35.46342,-4.8844645 33.497748,-5.6297973 c -0.64321,1.3474964 -1.160262,2.992388 -2.239467,4.6201707 0.105598,-0.9395341 0.882423,-3.230313 1.362329,-5.0231439 -3.059887,-0.8291391 -5.942629,1.3512192 -7.199047,5.42221584 C 24.767734,1.507955 24.01832,5.2268042 21.672402,9.4088564 20.464331,11.562476 15.250798,15.050493 12.892501,17.068505 5.6330862,23.28044 2.1505526,26.901388 -4.908548,33.141125 c -0.6268895,0.620043 -1.0336549,-0.470655 -1.8836108,0.208481 -0.1870359,0.251065 -0.2473579,1.090524 -1.3986764,2.373681 -1.1513185,1.283157 -7.4573508,7.267707 -8.7713248,8.219086 -3.775149,2.733387 -2.599998,6.477182 -1.211618,7.128836 2.326599,1.09202 1.657484,-0.68832 3.53582,-2.36007 0.476516,-0.424107 0.802578,-0.480753 1.352467,-1.025043 0.535902,-0.530445 0.699806,-1.397105 1.297354,-2.029681 0.38031,-0.402604 1.065216,-0.607224 1.468892,-1.046317 0.418583,-0.455308 0.45701,-1.106211 0.8978688,-1.597657 0.421522,-0.469891 1.104856,-0.649562 1.545752,-1.148752 0.523392,-0.592594 0.6399658,-1.545517 1.1867944,-2.175515 0.591981,-0.682017 1.5875111,-0.716897 2.2049842,-1.434537 0.4170071,-0.484654 0.4793971,-1.517755 0.9630847,-1.96213 C 2.5635418,30.517978 9.9598575,23.766175 16.05185,19.585735 c 0.848573,-0.582308 1.804918,-1.573055 2.267304,-1.792551 0.107771,-0.05116 1.660795,2.453943 2.255496,1.498364 0.265077,-0.425932 0.233767,-1.151525 0.539941,-1.762091 0.320657,-0.639449 2.608072,-0.542154 2.969299,-1.315287 0.178129,-0.381249 -0.315364,-0.9579 -0.150303,-1.368609 0.265772,-0.661298 1.699539,0.544379 2.659208,-1.218317 0.440981,-0.809978 -0.38795,-1.869116 -1.574152,-2.424045 -1.367038,-0.639528 0.293458,-1.8299335 0.935855,-3.2417363 0.560987,-1.2328888 1.465632,-2.4956907 2.00481,-3.552042 0.53525,-1.0486562 0.486717,-0.8840752 0.974105,-1.9868216 0.71005,0.2043001 0.809268,0.2367363 1.164722,0.389825 -0.281658,1.2343374 -1.627209,6.796209 -2.058622,8.4025989 -0.377446,0.318263 -0.973574,0.640577 -1.25193,0.800272 -0.554772,1.903449 -0.396957,1.866567 -0.439055,2.07492 -0.512581,2.536909 0.09124,6.891592 0.295426,8.323498 0.560044,3.927486 3.319571,22.832327 2.123224,26.690232 -0.426747,1.376144 0.0422,2.906124 -0.27487,3.663152 h -0.24 c -0.600489,0.07808 -1.182637,0.260849 -1.72,0.54 -0.322243,0.173132 -0.607581,0.407517 -0.84,0.69 -0.259786,0.329815 -0.42563,0.723695 -0.48,1.14 -0.02499,0.199219 -0.02499,0.400781 0,0.6 0.02969,0.219602 0.0868,0.434614 0.17,0.64 0.09091,0.206177 0.216001,0.395509 0.37,0.56 -0.157675,0.0945 -0.30513,0.205092 -0.44,0.33 -0.297536,0.271273 -0.518288,0.616199 -0.64,1 -0.121243,0.343621 -0.18214,0.705623 -0.18,1.07 0.02184,0.344663 0.103037,0.682966 0.24,1 0.151391,0.327765 0.373351,0.618021 0.65,0.85 l -0.08,0.08 c -0.381335,0.450128 -0.571544,1.031523 -0.53,1.62 -0.08383,0.778089 0.255852,1.541409 0.89,2 0.06479,0.04396 0.125081,0.0942 0.18,0.15 -0.0767,0.09269 -0.137519,0.197441 -0.18,0.31 -0.273519,0.721618 -0.273519,1.518382 0,2.24 0.242756,0.459478 0.64441,0.814924 1.13,1 0.358391,0.144674 0.744003,0.209512 1.13,0.19 0.186355,0.01526 0.373645,0.01526 0.56,0 0,0 -2.671497,-0.151602 -1.470482,2.055006 0.259563,0.476891 4.995195,3.289304 5.397841,1.944975 0.527586,-1.76147 0.282641,-0.05998 0.282641,-0.05998 2.62,4.45 6.8,11.53 8.19,13.53 0.35,0.51 0.83,1.2 1.48,1.32 0.687987,0.01087 1.358802,-0.215089 1.9,-0.64 0.459316,-0.275676 0.903304,-0.576119 1.33,-0.9 1,-0.71 1.88,-1.48 2.8,-2.25 0.31,-0.26 0.61,-0.52 0.93,-0.77 l 0.56,-0.5 -0.27,29.840002 10.47,-0.59 1.9,11.63 -1.57,0.5 c 0,0 -1,-0.9 -1.72,-0.71 -0.74,0.23 -1,1.6 -1,1.6 l -2.59,1 c 0,0 -1.12,-0.76 -1.92,-0.42 -0.8,0.34 -0.87,1.63 -0.87,1.63 l -2.27,1.13 c 0,0 -1.12,-0.77 -1.76,-0.45 -0.64,0.32 -0.73,1.82 -0.73,1.82 -6.48,2.74 -9.58,5.56 -5.87,5.57 h 53 c 3.72,0 0.61,-2.83 -5.87,-5.57 0,0 -0.09,-1.51 -0.73,-1.82 -0.64,-0.31 -1.76,0.45 -1.76,0.45 l -2.27,-1.13 c 0,0 -0.06,-1.29 -0.87,-1.63 -0.81,-0.34 -1.91,0.42 -1.91,0.42 l -2.59,-1 c 0,0 -0.23,-1.37 -1,-1.6 -0.77,-0.23 -1.77,0.71 -1.77,0.71 l -1.57,-0.5 2.15,-12.7 23.600002,-1.5 -6.450002,-35.170002 17.790002,-5 c 0.46934,-0.138515 0.82585,-0.52186 0.93,-1 0.79,-4.2 3.6,-22.69 3.6,-22.69 6.94,-12.3 7.4,-16.55 5.53,-17.680001 z M 44.032308,133.3771 c -0.28,0 -0.46,-0.21 -0.24,-0.38 0.4,-0.29 4.33,-2.15 4.37,-2.1 0.561897,0.66635 0.962302,1.45347 1.17,2.3 z m 44.12,-2.48 c 0,0 4,1.81 4.37,2.1 0.22,0.16 0,0.39 -0.23,0.38 l -5.31,-0.18 c 0.207698,-0.84653 0.608103,-1.63365 1.17,-2.3 z M 100.68231,48.897097 c -0.001,-0.377929 -0.15668,-0.738985 -0.43,-1 -0.446461,-0.434317 -1.022094,-0.711604 -1.640002,-0.79 -0.87,-0.09 -2.25,0.32 -2.36,1.34 -0.02511,0.195865 -0.02511,0.394135 0,0.59 -4.53,0 -8.110407,-4.06481 -9.247284,-5.47611 1.415716,0.223149 2.443509,0.459353 3.639551,0.309783 -0.830499,0.515911 -0.549451,1.721659 -0.342267,2.006327 0.605241,0.831595 1.662012,1.204518 2.67,1 0.812107,-0.103427 1.498718,-0.651173 1.78,-1.42 0.116328,-0.44071 0.02016,-0.910461 -0.26,-1.27 -0.241968,-0.28889 -0.541729,-0.523931 -0.88,-0.69 4,-1.64 7.530002,-3.42 8.900002,-3.94 0.86072,2.808449 1.57831,5.658784 2.15,8.54 0.0515,0.178088 -0.075,0.358125 -0.26,0.37 -0.71,0.13 -2.05,0.28 -3.72,0.39 z m 3.81,-10.92 c 1.78,-0.52 3.77,-0.63 4.58,1.33 1.16,2.79 -1.21,5.61 -2.35,6.95 -0.77,-2.98 -1.77,-6.66 -2.23,-8.28 z m -77.320002,17.08 c 0.54,-0.75 2.35,-1.19 3.33,-1.27 -0.67917,0.736999 -1.25755,1.560855 -1.72,2.45 -0.557009,-0.0439 -1.098643,-0.204004 -1.59,-0.47 -0.167746,-0.204433 -0.175972,-0.496448 -0.02,-0.71 z m -0.89,3.72 c 0.02456,-0.115813 0.07983,-0.222887 0.16,-0.31 0.275352,-0.269263 0.62259,-0.453299 1,-0.53 0.233197,-0.07294 0.470219,-0.13303 0.71,-0.18 -0.3987,0.786062 -0.368532,1.721268 0.08,2.48 h -0.62 c -0.351489,-0.02442 -0.69311,-0.126911 -1,-0.3 -0.09037,-0.05959 -0.162931,-0.142521 -0.21,-0.24 -0.05914,-0.136627 -0.09626,-0.281758 -0.11,-0.43 -0.02947,-0.161752 -0.03285,-0.32718 -0.01,-0.49 z m 2.34,8.43 c -0.411496,0.05512 -0.828504,0.05512 -1.24,0 -0.329879,-0.05608 -0.560875,-0.356814 -0.53,-0.69 -0.0065,-0.351807 0.22929,-0.662094 0.57,-0.75 0.415072,-0.05156 0.834928,-0.05156 1.25,0 0,0 2,-0.09 2,0.67 0,0.76 -2.05,0.77 -2.05,0.77 z m 2.51,-3.69 c -0.17537,0.148945 -0.384971,0.252028 -0.61,0.3 -0.288505,0.07136 -0.583186,0.114888 -0.88,0.13 h -2.03 c -0.268089,0.003 -0.534884,-0.03756 -0.79,-0.12 -0.62,-0.24 -0.64,-1 -0.38,-1.55 0.26,-0.55 0.67,-0.47 1.14,-0.45 0.335084,0.0055 0.669313,0.03561 1,0.09 l 0.51,0.07 0.48,0.07 c 0.299322,0.05615 0.593614,0.136414 0.88,0.24 0.238633,0.08214 0.461747,0.203835 0.66,0.36 0.113666,0.08912 0.180042,0.22556 0.18,0.37 0.04898,0.180621 -0.01387,0.373087 -0.16,0.49 z m 22.529997,-25.69 c 0.561428,-0.109093 1.110747,-0.273219 1.64,-0.49 1.290908,-0.432774 2.229813,-1.553277 2.43,-2.9 0.06,-0.57 -0.07,-0.94 -0.41,-1.07 -0.34,-0.13 -0.83,-0.34 -3,2.12 0.317821,-1.01854 0.68832,-2.019888 1.11,-3 0.677423,-0.01465 1.349927,-0.118892 2,-0.31 1.330434,-0.287484 2.388237,-1.295099 2.74,-2.61 0.13,-0.56 0,-0.94 -0.29,-1.11 -0.29,-0.17 -0.84,-0.46 -3.58,2.11 0.640822,-1.255227 1.3833,-2.455901 2.22,-3.59 0.253155,0.01346 0.506845,0.01346 0.76,0 0.406455,-0.01387 0.811116,-0.06069 1.21,-0.14 1.364497,-0.106287 2.55239,-0.973024 3.07,-2.24 0.2,-0.54 0.16,-0.92 -0.13,-1.14 -0.29,-0.22 -0.61,-0.44 -2.6,0.79 0.538248,-0.527404 1.116654,-1.012196 1.73,-1.45 6.47,-3.2 15.25,-5.33 26.93,-5.35 9.16,0 12.000005,1.62 12.000005,2.86 0,4.12 -11.940005,11.69 -19.750005,13.83 -1.64,0.5 -3,0.8 -2.1,2.58 l 1.417711,3.692224 c -3.348581,1.109065 -15.801138,5.484418 -27.637266,-1.940194 0.06934,-0.227848 0.13341,-0.448197 0.239555,-0.64203 z m 2.035739,37.219743 c -1.077181,0.892386 -9.338346,7.930513 -12.855739,9.720257 h 3e-6 c -3.695046,-5.391341 -7.099883,-10.975941 -10.2,-16.73 v -2.03 l 0.11,0.05 c 0.412771,0.203074 0.912295,0.04971 1.14,-0.35 0.35,-0.63 -0.86,-1.51 -0.39,-4.92 0.252526,-1.252626 0.701394,-2.457482 1.33,-3.57 0.02972,-0.101196 0.02972,-0.208804 0,-0.31 -0.05101,-0.153701 -0.125197,-0.298707 -0.22,-0.43 -0.06744,-0.08595 -0.148519,-0.16027 -0.24,-0.22 -0.31,-0.24 -0.79,-0.33 -1.76,1.5 -0.77,1.44 -1,2.71 -2.35,2.3 -2.31,-0.71 0.81,-4.58 1.55,-5.34 0.950377,-0.92115 2.207457,-1.458881 3.53,-1.51 2.16,0 1.84,5.5 1.48,8.7 -0.08,0.56 -0.42,3.33 -0.42,3.34 1.030463,2.274873 2.178684,4.494545 3.44,6.65 0.51,0.83 1.8,2.74 2.75,4.06 0.317405,0.522944 0.708033,0.99776 1.16,1.41 2.272659,-1.903919 5.062819,-5.060303 7.703018,-7.508038 3.138949,-2.910127 7.235907,2.708087 4.242718,5.187781 z m -3.355736,57.96026 c -0.14754,-1.1643 -0.587933,-2.27216 -1.28,-3.22 0.708126,-0.37929 1.439594,-0.7133 2.19,-1 1.06057,1.09705 1.758699,2.49331 2,4 z m 5.78,-0.3 c -0.167006,-1.83801 -0.888935,-3.58181 -2.07,-5 l 2.45,-1 c 1.44852,1.64026 2.322702,3.7081 2.49,5.89 0,0 -2.09,0.13 -2.87,0.11 z m 8.88,-0.14 c -0.7,0.06 -2.45,0.07 -3,0.07 -0.3286,-2.48882 -1.285302,-4.85305 -2.78,-6.87 0.916544,-0.27629 1.852496,-0.48353 2.8,-0.62 0.96416,0.24702 1.942703,0.43404 2.93,0.56 z m 0,-9.31 c -0.24,0.59 -3.09,-0.38 -3.09,-1.12 0,-0.48 -1,-10 -1.09,-10.55 l 4.11,-0.26 c 0.11,3.45 0.12,8.5 0.06,11.93 z m 16.07,5.58 c 0.750406,0.2867 1.481874,0.62071 2.19,1 -0.6932,0.94626 -1.130621,2.05531 -1.27,3.22 l -2.92,-0.17 c 0.227429,-1.52366 0.922843,-2.93895 1.99,-4.05 z m -5.24,-2.09 2.45,1 c -1.181065,1.41819 -1.902994,3.16199 -2.07,5 -0.78,0 -2.88,-0.09 -2.88,-0.09 0.165913,-2.18819 1.039993,-4.26282 2.49,-5.91 z m -2.78,-1 c -1.490196,2.01297 -2.449678,4.36869 -2.79,6.85 -0.49,0 -2.31,0 -3,-0.07 l 0.06,-6.86 c 0.99072,-0.12517 1.972639,-0.3122 2.94,-0.56 0.941919,0.14991 1.871212,0.37054 2.78,0.66 z m -5.66,-14.56 c 1,-0.11 3.1,-0.2 4.12,-0.25 0,0 -1.1,10.71 -1.1,11.2 0,0.74 -2.85,1.71 -3.08,1.12 -0.07,-3.45 -0.05,-8.66 0.06,-12.07 z M 114.70231,43.527097 c -0.28064,0.453048 -0.49292,0.945007 -0.63,1.46 -0.25,1.12 -3.92,21.95 -3.92,21.95 0,0 -3.4,1 -17.000002,4.48 l -1.3,-5 c 4.73,-0.9 14.280002,-2.69 14.470002,-2.89 0.19,-0.2 1.7,-7.37 2.34,-10.84 0.11,-0.63 0.41,-1.92 -0.22,-1.38 -0.91,0.77 -2.77,1.91 -3.76,0.81 -0.34161,-0.396381 -0.39762,-0.96454 -0.14,-1.42 0.46,-0.06 0.91,-0.14 1.32,-0.21 0.94149,-0.155656 1.56135,-1.067213 1.36,-2 1.4,-1.47 5.2,-6 4.11,-9.89 -1.09,-3.89 -6.4,-3.2 -9.4,-1 -1,0.77 -1.19,0.52 -1.28,0.39 -0.0601,-0.124161 -0.081,-0.263667 -0.06,-0.4 0.07,-1.34 3.28,-5.94 7.71,-3.66 0.3363,0.199901 0.71125,0.326022 1.1,0.37 1.57,0 -2.25,-7.62 -1.13,-8.11 0.85,-0.38 1.9,1.55 2.76,3.69 0.75,1.87 1,4 1.54,3.93 0.72,-0.05 1.49,-8.9 2.94,-8.58 1.45,0.32 0,7.61 -0.16,8.4 -0.16,0.79 -0.17,1.09 0.1,1.19 0.55,0.2 1.3,-1 2.12,-2.36 1.21,-1.94 2.21,-3.32 2.65,-3 1.38,1.21 -2.98,9.65 -5.52,14.14 z m -13.42,-1.13 c -0.38999,-0.22836 -0.83883,-0.336221 -1.290002,-0.31 -0.645939,0.03472 -1.258764,0.296854 -1.73,0.74 -0.665105,0.654964 -0.515092,1.765062 0.3,2.22 0.670386,0.404461 1.509612,0.404461 2.180002,0 0.64,-0.35 1.44,-1.1 1.16,-1.91 -0.11162,-0.312818 -0.33156,-0.575329 -0.62,-0.74 z m -37.080002,-13.52 c 0.320358,1.009965 0.999912,1.867414 1.91,2.41 1.002355,0.643729 2.230506,0.832675 3.38,0.52 0.606896,-0.175296 1.162592,-0.494307 1.62,-0.93 0.431844,-0.424868 0.757332,-0.945647 0.95,-1.52 0.350899,-0.986389 0.350899,-2.063611 0,-3.05 v -0.15 c -0.09322,-0.283048 -0.362182,-0.470507 -0.66,-0.46 -0.37957,0.0054 -0.681204,0.320556 -0.67,0.7 0.01896,0.755928 -0.127809,1.506842 -0.43,2.2 -0.248822,0.600748 -0.756157,1.056614 -1.38,1.24 -0.66967,0.180079 -1.38234,0.105249 -2,-0.21 -0.326285,-0.15745 -0.629167,-0.359372 -0.9,-0.6 -0.282976,-0.244982 -0.534854,-0.523727 -0.75,-0.83 -0.155398,-0.2311 -0.444091,-0.332752 -0.71,-0.25 -0.3405,0.101136 -0.533503,0.460212 -0.43,0.8 z m 9.37,-2.65 c 0.329747,1.018228 1.010117,1.886409 1.92,2.45 0.985102,0.66449 2.190288,0.919157 3.36,0.71 0.617725,-0.126452 1.196806,-0.397147 1.69,-0.79 0.483785,-0.412457 0.858206,-0.93802 1.09,-1.53 0,-0.14 0.1,-0.28 0.14,-0.42 0.03954,-0.134398 0.06961,-0.2714 0.09,-0.41 0.03951,-0.271555 0.05956,-0.545586 0.06,-0.82 -0.02057,-0.509407 -0.121829,-1.012325 -0.3,-1.49 l -0.07,-0.17 c -0.261908,-0.737285 -1.357254,-0.521535 -1.32,0.26 0.03055,0.739687 -0.113327,1.476188 -0.42,2.15 -0.14078,0.283638 -0.342202,0.532855 -0.59,0.73 -0.25062,0.189876 -0.541379,0.319863 -0.85,0.38 -0.683731,0.111966 -1.385337,-2.91e-4 -2,-0.32 -0.333384,-0.159838 -0.642998,-0.365126 -0.92,-0.61 -0.291624,-0.238268 -0.550526,-0.513982 -0.77,-0.82 -0.157966,-0.221687 -0.437337,-0.321463 -0.7,-0.25 -0.339438,0.09692 -0.536302,0.450385 -0.44,0.79 z"
       fill="#1c1b1a"
       id="path6"
       style="opacity:1;fill:#000000"
       sodipodi:nodetypes="ccscsccscscccccccccccccccccsscssccccccccccccccsssscccssscczsssssssssssssssssssssccccsssccccccccccccccccccccccsscccccccccccccccsccsccscsccsccsccccccccccccccccccccccccccscccccccccccccccccccccccccccccccccsccccccscccccccccccsccccscccccscccscccccsccccccccccccccccccccssccccccccccccccccccccccccccccccccccccccccccscccccccsccccccsccccccccsscccccccccccccccccccccccccccccccccccccccccccccccccc" /></g></svg>
